<svg id="visual" viewBox="0 0 450 600" width="450" height="600" xmlns="http://www.w3.org/2000/svg" xmlns:xlink="http://www.w3.org/1999/xlink" version="1.1"><rect x="0" y="0" width="450" height="600" fill="#9aabcc"></rect><path d="M0 392L10.7 389.2C21.3 386.3 42.7 380.7 64.2 393.3C85.7 406 107.3 437 128.8 437C150.3 437 171.7 406 193 407.7C214.3 409.3 235.7 443.7 257 454.3C278.3 465 299.7 452 321.2 459.2C342.7 466.3 364.3 493.7 385.8 490C407.3 486.3 428.7 451.7 439.3 434.3L450 417L450 601L439.3 601C428.7 601 407.3 601 385.8 601C364.3 601 342.7 601 321.2 601C299.7 601 278.3 601 257 601C235.7 601 214.3 601 193 601C171.7 601 150.3 601 128.8 601C107.3 601 85.7 601 64.2 601C42.7 601 21.3 601 10.7 601L0 601Z" fill="#86a1c9" stroke-linecap="round" stroke-linejoin="miter"></path></svg>